<?xml version="1.0" encoding="UTF-8"?>
<svg version="1.1" xmlns="http://www.w3.org/2000/svg" width="500" height="146">
<path d="M0 0 C3.88011029 0.01853556 5.01832493 0.77651924 7.921875 3.45703125 C10.83933947 6.78883105 13.49077509 10.31802912 16.125 13.875 C17.47612303 15.62735097 18.82978405 17.37775224 20.1875 19.125 C20.71472656 19.83140625 21.24195313 20.5378125 21.78515625 21.265625 C23.05127535 23.00532784 23.05127535 23.00532784 25.125 23.875 C25.11714478 22.88318726 25.11714478 22.88318726 25.10913086 21.87133789 C25.08842344 18.89340149 25.07535988 15.91548018 25.0625 12.9375 C25.05412109 11.89658203 25.04574219 10.85566406 25.03710938 9.78320312 C25.03227539 8.29916992 25.03227539 8.29916992 25.02734375 6.78515625 C25.01948853 5.41049194 25.01948853 5.41049194 25.01147461 4.00805664 C25.125 1.875 25.125 1.875 26.125 0.875 C27.62238124 0.7770943 29.12442892 0.74525136 30.625 0.75 C31.4396875 0.74742188 32.254375 0.74484375 33.09375 0.7421875 C35.125 0.875 35.125 0.875 36.125 1.875 C36.2261692 4.96581465 36.26468558 8.03382555 36.2578125 11.125 C36.25876923 12.05344727 36.25972595 12.98189453 36.26071167 13.93847656 C36.26139355 15.90559965 36.25953872 17.87272496 36.25537109 19.83984375 C36.25002295 22.86203026 36.25531582 25.88406815 36.26171875 28.90625 C36.26105797 30.81250033 36.25977681 32.71875057 36.2578125 34.625 C36.25983673 35.53540039 36.26186096 36.44580078 36.26394653 37.38378906 C36.23994969 43.76005031 36.23994969 43.76005031 35.125 44.875 C28.08873057 45.62888601 28.08873057 45.62888601 24.21875 42.6015625 C23.33057291 41.58790564 22.46658618 40.55265924 21.625 39.5 C21.16359619 38.96141357 20.70219238 38.42282715 20.22680664 37.86791992 C18.83137789 36.22466187 17.47368748 34.55674598 16.125 32.875 C14.93197266 31.39580078 14.93197266 31.39580078 13.71484375 29.88671875 C12.35594344 28.18254431 11.01027517 26.46765599 9.68359375 24.73828125 C8.24801159 22.77020558 8.24801159 22.77020558 6.125 21.875 C6.13023682 22.5362085 6.13547363 23.19741699 6.14086914 23.87866211 C6.16157656 26.85659851 6.17464012 29.83451982 6.1875 32.8125 C6.19587891 33.85341797 6.20425781 34.89433594 6.21289062 35.96679688 C6.21611328 36.95615234 6.21933594 37.94550781 6.22265625 38.96484375 C6.22789307 39.88128662 6.23312988 40.79772949 6.23852539 41.74194336 C6.125 43.875 6.125 43.875 5.125 44.875 C3.62761876 44.9729057 2.12557108 45.00474864 0.625 45 C-0.1896875 45.00257812 -1.004375 45.00515625 -1.84375 45.0078125 C-3.875 44.875 -3.875 44.875 -4.875 43.875 C-4.9761692 40.78418535 -5.01468558 37.71617445 -5.0078125 34.625 C-5.00876923 33.69655273 -5.00972595 32.76810547 -5.01071167 31.81152344 C-5.01139355 29.84440035 -5.00953872 27.87727504 -5.00537109 25.91015625 C-5.00002295 22.88796974 -5.00531582 19.86593185 -5.01171875 16.84375 C-5.01105797 14.93749967 -5.00977681 13.03124943 -5.0078125 11.125 C-5.00983673 10.21459961 -5.01186096 9.30419922 -5.01394653 8.36621094 C-4.98669835 1.12602866 -4.98669835 1.12602866 0 0 Z " fill="#FDFDFD" transform="translate(356.875,37.125)"/>
<path d="M0 0 C5.80244055 3.56001265 10.44049272 9.01060914 12.5 15.5 C13.3701808 22.83582654 13.12238721 29.51278537 8.5 35.5 C3.61837555 40.6465978 -0.75823557 44.13965091 -7.98828125 44.8359375 C-16.36455451 44.92149698 -22.76256092 44.79194596 -29.203125 38.95703125 C-34.03234174 33.83477952 -36.15412245 28.5634869 -36.9375 21.625 C-36.58402121 14.42817181 -33.88633064 8.34076094 -28.5625 3.5 C-21.04710297 -2.71551722 -8.98675309 -3.99018899 0 0 Z M-23.3125 13.3125 C-25.62717688 17.57637847 -25.67009561 21.40382832 -24.9375 26.125 C-22.93889596 30.81737471 -20.10715889 33.19642055 -15.5 35.5 C-10.50301714 35.98990028 -7.17196754 35.43159037 -3.01171875 32.7578125 C0.72946453 29.64499333 1.41840299 26.23437309 1.9375 21.5625 C1.73337074 16.92965321 0.26551806 14.21161634 -2.5 10.5 C-10.29326729 5.13130476 -16.90622839 6.90622839 -23.3125 13.3125 Z " fill="#FEFEFE" transform="translate(332.5,38.5)"/>
<path d="M0 0 C1.16853516 -0.02900391 2.33707031 -0.05800781 3.54101562 -0.08789062 C10.68682796 -0.14028519 15.39004755 0.4162026 21.4375 4.3125 C25.18157512 8.05657512 25.73462053 11.18979347 25.9375 16.3125 C25.76024878 21.59721225 25.07322383 24.46902052 21.4375 28.3125 C20.4475 28.6425 19.4575 28.9725 18.4375 29.3125 C19.92298519 33.10048723 21.09712409 35.896485 23.6875 39.0625 C24.265 39.805 24.8425 40.5475 25.4375 41.3125 C25.1075 42.3025 24.7775 43.2925 24.4375 44.3125 C20.89700931 45.03075528 17.95038043 45.24859708 14.4375 44.3125 C12.05569453 41.65554011 10.29457883 38.84647243 8.3984375 35.828125 C6.67516941 33.19399783 6.67516941 33.19399783 4.1640625 32.359375 C1.72914968 32.04388508 1.72914968 32.04388508 -1.5625 32.3125 C-1.55089844 33.09496094 -1.53929687 33.87742188 -1.52734375 34.68359375 C-1.51832031 35.69550781 -1.50929687 36.70742187 -1.5 37.75 C-1.48839844 38.75933594 -1.47679687 39.76867187 -1.46484375 40.80859375 C-1.5625 43.3125 -1.5625 43.3125 -2.5625 44.3125 C-4.22679051 44.41073937 -5.89531931 44.44223631 -7.5625 44.4375 C-8.92375 44.44136719 -8.92375 44.44136719 -10.3125 44.4453125 C-12.5625 44.3125 -12.5625 44.3125 -13.5625 43.3125 C-13.6636692 40.22168535 -13.70218558 37.15367445 -13.6953125 34.0625 C-13.69626923 33.13405273 -13.69722595 32.20560547 -13.69821167 31.24902344 C-13.69889355 29.28190035 -13.69703872 27.31477504 -13.69287109 25.34765625 C-13.68752295 22.32546974 -13.69281582 19.30343185 -13.69921875 16.28125 C-13.69855797 14.37499967 -13.69727681 12.46874943 -13.6953125 10.5625 C-13.69733673 9.65209961 -13.69936096 8.74169922 -13.70144653 7.80371094 C-13.66326473 -2.34166906 -8.9415265 0.07230345 0 0 Z M-1.5625 9.3125 C-1.5625 14.2625 -1.5625 19.2125 -1.5625 24.3125 C4.06874307 24.3125 7.32399228 24.11726743 12.4375 22.3125 C14.78563734 20.38082602 14.78563734 20.38082602 14.8125 16.9375 C14.75119687 13.34543888 14.75119687 13.34543888 12.8046875 11.1015625 C9.74218961 8.78700139 7.97981165 8.89761688 4.1875 9.0625 C2.29 9.145 0.3925 9.2275 -1.5625 9.3125 Z " fill="#FEFEFE" transform="translate(156.5625,37.6875)"/>
<path d="M0 0 C1.0374939 0.00303635 1.0374939 0.00303635 2.09594727 0.00613403 C2.80243408 0.00517731 3.5089209 0.00422058 4.23681641 0.00323486 C5.7331552 0.00255321 7.22949694 0.00440649 8.72583008 0.00857544 C11.02374884 0.01392396 13.32147213 0.00863003 15.61938477 0.00222778 C17.06990603 0.00288857 18.52042718 0.00416974 19.97094727 0.00613403 C20.66260986 0.0041098 21.35427246 0.00208557 22.06689453 0 C26.91849503 0.0239943 26.91849503 0.0239943 28.03344727 1.13894653 C28.15844727 4.63894653 28.15844727 4.63894653 28.03344727 8.13894653 C27.03344727 9.13894653 27.03344727 9.13894653 24.90039062 9.25247192 C23.98394775 9.24723511 23.06750488 9.24199829 22.12329102 9.23660278 C21.13393555 9.23338013 20.14458008 9.23015747 19.12524414 9.22683716 C18.08432617 9.21845825 17.0434082 9.21007935 15.97094727 9.20144653 C14.92616211 9.19693481 13.88137695 9.1924231 12.80493164 9.18777466 C10.21438067 9.17594566 7.62394168 9.15946343 5.03344727 9.13894653 C5.03344727 12.10894653 5.03344727 15.07894653 5.03344727 18.13894653 C6.3934082 18.12734497 7.75336914 18.11574341 9.15454102 18.10379028 C10.92667507 18.09441391 12.69881059 18.08531355 14.47094727 18.07644653 C15.81769531 18.06387817 15.81769531 18.06387817 17.19165039 18.05105591 C18.0456543 18.04783325 18.8996582 18.0446106 19.77954102 18.04129028 C20.96567993 18.03343506 20.96567993 18.03343506 22.17578125 18.02542114 C24.03344727 18.13894653 24.03344727 18.13894653 25.03344727 19.13894653 C25.15844727 22.13894653 25.15844727 22.13894653 25.03344727 25.13894653 C24.03344727 26.13894653 24.03344727 26.13894653 22.17578125 26.25247192 C21.38502197 26.24723511 20.5942627 26.24199829 19.77954102 26.23660278 C18.92553711 26.23338013 18.0715332 26.23015747 17.19165039 26.22683716 C15.84490234 26.2142688 15.84490234 26.2142688 14.47094727 26.20144653 C13.56924805 26.19693481 12.66754883 26.1924231 11.73852539 26.18777466 C9.50347137 26.17594898 7.26845125 26.15801292 5.03344727 26.13894653 C5.03344727 29.10894653 5.03344727 32.07894653 5.03344727 35.13894653 C5.72494873 35.13370972 6.4164502 35.1284729 7.12890625 35.12307739 C10.24291078 35.10237153 13.35690088 35.0893069 16.47094727 35.07644653 C17.55956055 35.06806763 18.64817383 35.05968872 19.76977539 35.05105591 C20.80424805 35.04783325 21.8387207 35.0446106 22.90454102 35.04129028 C23.86287842 35.03605347 24.82121582 35.03081665 25.80859375 35.02542114 C28.03344727 35.13894653 28.03344727 35.13894653 29.03344727 36.13894653 C29.15844727 39.63894653 29.15844727 39.63894653 29.03344727 43.13894653 C27.32851845 44.84387535 25.18810466 44.26699074 22.91442871 44.27789307 C22.20089233 44.27586884 21.48735596 44.2738446 20.75219727 44.27175903 C20.0235144 44.27271576 19.29483154 44.27367249 18.54406738 44.2746582 C17.00065017 44.27533989 15.4572301 44.27348641 13.91381836 44.26931763 C11.54347327 44.26396916 9.17331767 44.26926295 6.80297852 44.27566528 C5.30688434 44.2750045 3.81079029 44.27372333 2.31469727 44.27175903 C1.2443927 44.27479538 1.2443927 44.27479538 0.15246582 44.27789307 C-4.85160082 44.25389845 -4.85160082 44.25389845 -5.96655273 43.13894653 C-6.06772194 40.04813188 -6.10623831 36.98012098 -6.09936523 33.88894653 C-6.10032196 32.96049927 -6.10127869 32.032052 -6.1022644 31.07546997 C-6.10294629 29.10834689 -6.10109145 27.14122157 -6.09692383 25.17410278 C-6.09157569 22.15191627 -6.09686856 19.12987839 -6.10327148 16.10769653 C-6.1026107 14.2014462 -6.10132954 12.29519597 -6.09936523 10.38894653 C-6.10138947 9.47854614 -6.1034137 8.56814575 -6.10549927 7.63015747 C-6.07689653 0.03005417 -6.07689653 0.03005417 0 0 Z " fill="#FEFEFE" transform="translate(408.966552734375,37.861053466796875)"/>
<path d="M0 0 C1.0374939 0.00303635 1.0374939 0.00303635 2.09594727 0.00613403 C2.80243408 0.00517731 3.5089209 0.00422058 4.23681641 0.00323486 C5.7331552 0.00255321 7.22949694 0.00440649 8.72583008 0.00857544 C11.02374884 0.01392396 13.32147213 0.00863003 15.61938477 0.00222778 C17.06990603 0.00288857 18.52042718 0.00416974 19.97094727 0.00613403 C20.66260986 0.0041098 21.35427246 0.00208557 22.06689453 0 C26.91849503 0.0239943 26.91849503 0.0239943 28.03344727 1.13894653 C28.15844727 4.63894653 28.15844727 4.63894653 28.03344727 8.13894653 C27.03344727 9.13894653 27.03344727 9.13894653 24.90039062 9.25247192 C23.98394775 9.24723511 23.06750488 9.24199829 22.12329102 9.23660278 C21.13393555 9.23338013 20.14458008 9.23015747 19.12524414 9.22683716 C18.08432617 9.21845825 17.0434082 9.21007935 15.97094727 9.20144653 C14.92616211 9.19693481 13.88137695 9.1924231 12.80493164 9.18777466 C10.21438067 9.17594566 7.62394168 9.15946343 5.03344727 9.13894653 C5.03344727 12.10894653 5.03344727 15.07894653 5.03344727 18.13894653 C6.3934082 18.12734497 7.75336914 18.11574341 9.15454102 18.10379028 C10.92667507 18.09441391 12.69881059 18.08531355 14.47094727 18.07644653 C15.81769531 18.06387817 15.81769531 18.06387817 17.19165039 18.05105591 C18.0456543 18.04783325 18.8996582 18.0446106 19.77954102 18.04129028 C20.96567993 18.03343506 20.96567993 18.03343506 22.17578125 18.02542114 C24.03344727 18.13894653 24.03344727 18.13894653 25.03344727 19.13894653 C25.15844727 22.13894653 25.15844727 22.13894653 25.03344727 25.13894653 C24.03344727 26.13894653 24.03344727 26.13894653 22.17578125 26.25247192 C21.38502197 26.24723511 20.5942627 26.24199829 19.77954102 26.23660278 C18.92553711 26.23338013 18.0715332 26.23015747 17.19165039 26.22683716 C15.84490234 26.2142688 15.84490234 26.2142688 14.47094727 26.20144653 C13.56924805 26.19693481 12.66754883 26.1924231 11.73852539 26.18777466 C9.50347137 26.17594898 7.26845125 26.15801292 5.03344727 26.13894653 C5.03344727 29.10894653 5.03344727 32.07894653 5.03344727 35.13894653 C5.72494873 35.13370972 6.4164502 35.1284729 7.12890625 35.12307739 C10.24291078 35.10237153 13.35690088 35.0893069 16.47094727 35.07644653 C17.55956055 35.06806763 18.64817383 35.05968872 19.76977539 35.05105591 C20.80424805 35.04783325 21.8387207 35.0446106 22.90454102 35.04129028 C23.86287842 35.03605347 24.82121582 35.03081665 25.80859375 35.02542114 C28.03344727 35.13894653 28.03344727 35.13894653 29.03344727 36.13894653 C29.15844727 39.63894653 29.15844727 39.63894653 29.03344727 43.13894653 C27.32851845 44.84387535 25.18810466 44.26699074 22.91442871 44.27789307 C22.20089233 44.27586884 21.48735596 44.2738446 20.75219727 44.27175903 C20.0235144 44.27271576 19.29483154 44.27367249 18.54406738 44.2746582 C17.00065017 44.27533989 15.4572301 44.27348641 13.91381836 44.26931763 C11.54347327 44.26396916 9.17331767 44.26926295 6.80297852 44.27566528 C5.30688434 44.2750045 3.81079029 44.27372333 2.31469727 44.27175903 C1.2443927 44.27479538 1.2443927 44.27479538 0.15246582 44.27789307 C-4.85160082 44.25389845 -4.85160082 44.25389845 -5.96655273 43.13894653 C-6.06772194 40.04813188 -6.10623831 36.98012098 -6.09936523 33.88894653 C-6.10032196 32.96049927 -6.10127869 32.032052 -6.1022644 31.07546997 C-6.10294629 29.10834689 -6.10109145 27.14122157 -6.09692383 25.17410278 C-6.09157569 22.15191627 -6.09686856 19.12987839 -6.10327148 16.10769653 C-6.1026107 14.2014462 -6.10132954 12.29519597 -6.09936523 10.38894653 C-6.10138947 9.47854614 -6.1034137 8.56814575 -6.10549927 7.63015747 C-6.07689653 0.03005417 -6.07689653 0.03005417 0 0 Z " fill="#FEFEFE" transform="translate(262.966552734375,37.861053466796875)"/>
<path d="M0 0 C1.00873169 -0.00942627 1.00873169 -0.00942627 2.0378418 -0.01904297 C7.03725541 0.10684374 10.52953995 1.34474255 14.9375 3.5 C14.6075 5.81 14.2775 8.12 13.9375 10.5 C10.65053767 11.29953138 9.22726808 11.59658936 5.9375 10.5 C3.70931559 10.43062938 1.47915476 10.41542916 -0.75 10.4375 C-1.92949219 10.44652344 -3.10898438 10.45554687 -4.32421875 10.46484375 C-5.22785156 10.47644531 -6.13148437 10.48804688 -7.0625 10.5 C-7.0625 12.48 -7.0625 14.46 -7.0625 16.5 C-5.43441406 16.86351562 -5.43441406 16.86351562 -3.7734375 17.234375 C-2.32797493 17.57227534 -0.88267061 17.91085313 0.5625 18.25 C1.63177734 18.48589844 1.63177734 18.48589844 2.72265625 18.7265625 C8.43006633 20.08796307 12.7242006 22.2867006 16.9375 26.5 C18.09251985 30.8421799 18.24866167 34.52990775 16.875 38.8125 C13.96246391 42.85246942 10.6274434 44.93668553 5.9375 46.5 C-3.07138553 47.11746294 -11.13373976 47.43345082 -19.0625 42.5 C-18.5645163 38.76512223 -18.18758244 36.68762365 -16.0625 33.5 C-15.299375 33.809375 -14.53625 34.11875 -13.75 34.4375 C-9.17836062 36.24489231 -5.79681822 36.6076543 -0.875 36.5625 C0.39730469 36.55347656 1.66960937 36.54445312 2.98046875 36.53515625 C3.95628906 36.52355469 4.93210937 36.51195312 5.9375 36.5 C5.4425 34.025 5.4425 34.025 4.9375 31.5 C3.69613281 31.12488281 2.45476562 30.74976562 1.17578125 30.36328125 C-0.46640142 29.8471667 -2.10831461 29.33019416 -3.75 28.8125 C-4.56662109 28.56822266 -5.38324219 28.32394531 -6.22460938 28.07226562 C-11.30298294 26.44800849 -14.70303882 24.86001076 -18.0625 20.5 C-19.57837673 16.30947537 -19.34722333 12.48704089 -18.125 8.25 C-13.16235332 1.63313777 -8.20540422 0.05842828 0 0 Z " fill="#FEFEFE" transform="translate(81.0625,36.5)"/>
<path d="M0 0 C3.3 0 6.6 0 10 0 C22 23.37752161 22 23.37752161 22 28 C24.79345282 25.57449247 25.99306975 23.13955836 27.41015625 19.74609375 C28.05887695 18.21758789 28.05887695 18.21758789 28.72070312 16.65820312 C29.16349609 15.59537109 29.60628906 14.53253906 30.0625 13.4375 C30.94488699 11.33021217 31.8314093 9.22464971 32.72265625 7.12109375 C33.11203369 6.1870874 33.50141113 5.25308105 33.90258789 4.29077148 C35 2 35 2 37 0 C39.68839385 -0.26991906 42.29141936 -0.08737357 45 0 C46.36224823 4.47331475 45.57662957 6.81668638 43.6484375 11.0078125 C43.12636719 12.16023438 42.60429687 13.31265625 42.06640625 14.5 C41.50294373 15.70849171 40.93914005 16.91682442 40.375 18.125 C39.84003906 19.29804687 39.30507812 20.47109375 38.75390625 21.6796875 C37.69222418 24.00453875 36.62428621 26.32654433 35.54980469 28.64550781 C33.65635736 32.74380118 31.80853568 36.86191952 29.96728516 40.98388672 C29 43 29 43 28 44 C25.8203125 44.23828125 25.8203125 44.23828125 23.125 44.3125 C21.79855469 44.36857422 21.79855469 44.36857422 20.4453125 44.42578125 C18 44 18 44 16.52075195 42.36083984 C14.74385829 39.60236147 13.49770434 36.82515348 12.22265625 33.80078125 C11.70896484 32.59099609 11.19527344 31.38121094 10.66601562 30.13476562 C10.13130384 28.86076377 9.5967999 27.58667465 9.0625 26.3125 C8.27111657 24.43916406 7.4781883 22.56649037 6.68466187 20.69406128 C5.92339854 18.89458344 5.1669777 17.09305947 4.41064453 15.29150391 C2.88632015 11.73474701 1.26338282 8.23490523 -0.43579102 4.75854492 C-1 3 -1 3 0 0 Z " fill="#FEFEFE" transform="translate(206,38)"/>
<path d="M0 0 C0.80103149 0.00202423 1.60206299 0.00404846 2.42736816 0.00613403 C3.24483521 0.00517731 4.06230225 0.00422058 4.90454102 0.00323486 C6.63627194 0.00255308 8.3680054 0.00440724 10.09973145 0.00857544 C12.75978298 0.01392374 15.41966566 0.00863041 18.07971191 0.00222778 C19.75809771 0.00288857 21.43648339 0.00416973 23.11486816 0.00613403 C23.91589966 0.0041098 24.71693115 0.00208557 25.54223633 0 C31.15616738 0.02399575 31.15616738 0.02399575 32.27111816 1.13894653 C32.39611816 4.63894653 32.39611816 4.63894653 32.27111816 8.13894653 C31.27111816 9.13894653 31.27111816 9.13894653 28.32971191 9.23660278 C26.53727051 9.21920044 26.53727051 9.21920044 24.70861816 9.20144653 C22.91230957 9.18791138 22.91230957 9.18791138 21.07971191 9.17410278 C20.15287598 9.16250122 19.22604004 9.15089966 18.27111816 9.13894653 C18.27897339 10.67603271 18.27897339 10.67603271 18.2869873 12.24417114 C18.30503785 16.0328993 18.31655036 19.82162362 18.3260498 23.61038208 C18.3310899 25.25264118 18.33792195 26.89489577 18.34655762 28.53713989 C18.35863742 30.89270132 18.36434955 33.24820362 18.36877441 35.60379028 C18.3739357 36.34233749 18.37909698 37.0808847 18.38441467 37.84181213 C18.38461066 39.60792741 18.33306535 41.37391799 18.27111816 43.13894653 C17.27111816 44.13894653 17.27111816 44.13894653 15.23986816 44.27175903 C14.42518066 44.26918091 13.61049316 44.26660278 12.77111816 44.26394653 C11.95643066 44.26652466 11.14174316 44.26910278 10.30236816 44.27175903 C8.27111816 44.13894653 8.27111816 44.13894653 7.27111816 43.13894653 C7.18264074 40.61800577 7.15584515 38.1246376 7.17346191 35.60379028 C7.17487686 34.8505397 7.17629181 34.09728912 7.17774963 33.32121277 C7.18336441 30.90625094 7.19591933 28.49138052 7.20861816 26.07644653 C7.21363126 24.44298433 7.2181945 22.80952067 7.22229004 21.17605591 C7.23333863 17.16365068 7.2506131 13.15131413 7.27111816 9.13894653 C5.88086426 9.15634888 5.88086426 9.15634888 4.46252441 9.17410278 C3.26498535 9.18312622 2.06744629 9.19214966 0.83361816 9.20144653 C-0.36134277 9.2130481 -1.55630371 9.22464966 -2.78747559 9.23660278 C-5.72888184 9.13894653 -5.72888184 9.13894653 -6.72888184 8.13894653 C-6.85388184 4.63894653 -6.85388184 4.63894653 -6.72888184 1.13894653 C-4.91322747 -0.67670783 -2.41618222 0.01032754 0 0 Z " fill="#FEFEFE" transform="translate(106.7288818359375,37.861053466796875)"/>
<path d="M0 0 C0.9075 0.00257812 1.815 0.00515625 2.75 0.0078125 C4.11125 0.00394531 4.11125 0.00394531 5.5 0 C7.75 0.1328125 7.75 0.1328125 8.75 1.1328125 C8.8511692 4.22362715 8.88968558 7.29163805 8.8828125 10.3828125 C8.88376923 11.31125977 8.88472595 12.23970703 8.88571167 13.19628906 C8.88639355 15.16341215 8.88453872 17.13053746 8.88037109 19.09765625 C8.87502295 22.11984276 8.88031582 25.14188065 8.88671875 28.1640625 C8.88605797 30.07031283 8.88477681 31.97656307 8.8828125 33.8828125 C8.88483673 34.79321289 8.88686096 35.70361328 8.88894653 36.64160156 C8.86494969 43.01786281 8.86494969 43.01786281 7.75 44.1328125 C6.08570949 44.23105187 4.41718069 44.26254881 2.75 44.2578125 C1.38875 44.26167969 1.38875 44.26167969 0 44.265625 C-2.25 44.1328125 -2.25 44.1328125 -3.25 43.1328125 C-3.3511692 40.04199785 -3.38968558 36.97398695 -3.3828125 33.8828125 C-3.38376923 32.95436523 -3.38472595 32.02591797 -3.38571167 31.06933594 C-3.38639355 29.10221285 -3.38453872 27.13508754 -3.38037109 25.16796875 C-3.37502295 22.14578224 -3.38031582 19.12374435 -3.38671875 16.1015625 C-3.38605797 14.19531217 -3.38477681 12.28906193 -3.3828125 10.3828125 C-3.38483673 9.47241211 -3.38686096 8.56201172 -3.38894653 7.62402344 C-3.36100042 0.19839239 -3.36100042 0.19839239 0 0 Z " fill="#FFFFFF" transform="translate(192.25,37.8671875)"/>
</svg>
